PathFileType	4	(X/Y/Z)	C:/Users/Carlo/Dropbox/Carlos/SARAH/CongressoMarcha2025/WorkshopOpenSim/C3D/Caso02/Static.c3d.trc
DataRate	CameraRate	NumFrames	NumMarkers	Units	OrigDataRate	OrigDataStartFrame	OrigNumFrames
100.000000	100.000000	2	141	mm	100.000000	75	100
Frame#	Time	LFHD			RFHD			LBHD			RBHD			C7			T10			CLAV			STRN			RBAK			LSHO			LUPA			LELB			LFRM			LWRA			LWRB			LFIN			RSHO			RUPA			RELB			RFRM			RWRA			RWRB			RFIN			LASI			RASI			LPSI			RPSI			LTHI			LKNE			LTIB			LANK			LHEE			LTOE			RTHI			RKNE			RTIB			RANK			RHEE			RTOE			PELO			PELA			PELL			PELP			LFEO			LFEA			LFEL			LFEP			LTIO			LTIA			LTIL			LTIP			LFOO			LFOA			LFOL			LFOP			LTOO			LTOA			LTOL			LTOP			RFEO			RFEA			RFEL			RFEP			RTIO			RTIA			RTIL			RTIP			RFOO			RFOA			RFOL			RFOP			RTOO			RTOA			RTOL			RTOP			HEDO			HEDA			HEDL			HEDP			LCLO			LCLA			LCLL			LCLP			RCLO			RCLA			RCLL			RCLP			TRXO			TRXA			TRXL			TRXP			LHUO			LHUA			LHUL			LHUP			LRAO			LRAA			LRAL			LRAP			LHNO			LHNA			LHNL			LHNP			RHUO			RHUA			RHUL			RHUP			RRAO			RRAA			RRAL			RRAP			RHNO			RHNA			RHNL			RHNP			LHipAngles			LKneeAngles			LAbsAnkleAngle			LAnkleAngles			RHipAngles			RKneeAngles			RAnkleAngles			RAbsAnkleAngle			LPelvisAngles			RPelvisAngles			LFootProgressAngles			RFootProgressAngles			RNeckAngles			LNeckAngles			RSpineAngles			LSpineAngles			LShoulderAngles			LElbowAngles			LWristAngles			RShoulderAngles			RElbowAngles			RWristAngles			RThoraxAngles			LThoraxAngles			RHeadAngles			LHeadAngles			
		X1	Y1	Z1	X2	Y2	Z2	X3	Y3	Z3	X4	Y4	Z4	X5	Y5	Z5	X6	Y6	Z6	X7	Y7	Z7	X8	Y8	Z8	X9	Y9	Z9	X10	Y10	Z10	X11	Y11	Z11	X12	Y12	Z12	X13	Y13	Z13	X14	Y14	Z14	X15	Y15	Z15	X16	Y16	Z16	X17	Y17	Z17	X18	Y18	Z18	X19	Y19	Z19	X20	Y20	Z20	X21	Y21	Z21	X22	Y22	Z22	X23	Y23	Z23	X24	Y24	Z24	X25	Y25	Z25	X26	Y26	Z26	X27	Y27	Z27	X28	Y28	Z28	X29	Y29	Z29	X30	Y30	Z30	X31	Y31	Z31	X32	Y32	Z32	X33	Y33	Z33	X34	Y34	Z34	X35	Y35	Z35	X36	Y36	Z36	X37	Y37	Z37	X38	Y38	Z38	X39	Y39	Z39	X40	Y40	Z40	X41	Y41	Z41	X42	Y42	Z42	X43	Y43	Z43	X44	Y44	Z44	X45	Y45	Z45	X46	Y46	Z46	X47	Y47	Z47	X48	Y48	Z48	X49	Y49	Z49	X50	Y50	Z50	X51	Y51	Z51	X52	Y52	Z52	X53	Y53	Z53	X54	Y54	Z54	X55	Y55	Z55	X56	Y56	Z56	X57	Y57	Z57	X58	Y58	Z58	X59	Y59	Z59	X60	Y60	Z60	X61	Y61	Z61	X62	Y62	Z62	X63	Y63	Z63	X64	Y64	Z64	X65	Y65	Z65	X66	Y66	Z66	X67	Y67	Z67	X68	Y68	Z68	X69	Y69	Z69	X70	Y70	Z70	X71	Y71	Z71	X72	Y72	Z72	X73	Y73	Z73	X74	Y74	Z74	X75	Y75	Z75	X76	Y76	Z76	X77	Y77	Z77	X78	Y78	Z78	X79	Y79	Z79	X80	Y80	Z80	X81	Y81	Z81	X82	Y82	Z82	X83	Y83	Z83	X84	Y84	Z84	X85	Y85	Z85	X86	Y86	Z86	X87	Y87	Z87	X88	Y88	Z88	X89	Y89	Z89	X90	Y90	Z90	X91	Y91	Z91	X92	Y92	Z92	X93	Y93	Z93	X94	Y94	Z94	X95	Y95	Z95	X96	Y96	Z96	X97	Y97	Z97	X98	Y98	Z98	X99	Y99	Z99	X100	Y100	Z100	X101	Y101	Z101	X102	Y102	Z102	X103	Y103	Z103	X104	Y104	Z104	X105	Y105	Z105	X106	Y106	Z106	X107	Y107	Z107	X108	Y108	Z108	X109	Y109	Z109	X110	Y110	Z110	X111	Y111	Z111	X112	Y112	Z112	X113	Y113	Z113	X114	Y114	Z114	X115	Y115	Z115	X116	Y116	Z116	X117	Y117	Z117	X118	Y118	Z118	X119	Y119	Z119	X120	Y120	Z120	X121	Y121	Z121	X122	Y122	Z122	X123	Y123	Z123	X124	Y124	Z124	X125	Y125	Z125	X126	Y126	Z126	X127	Y127	Z127	X128	Y128	Z128	X129	Y129	Z129	X130	Y130	Z130	X131	Y131	Z131	X132	Y132	Z132	X133	Y133	Z133	X134	Y134	Z134	X135	Y135	Z135	X136	Y136	Z136	X137	Y137	Z137	X138	Y138	Z138	X139	Y139	Z139	X140	Y140	Z140	X141	Y141	Z141	

76	0.75	-351.147430419922	1741.610473632813	392.4671630859377	-476.6448364257815	1731.822387695313	370.3796691894532	-325.3078918457032	1698.021362304688	243.5506286621095	-466.7596740722659	1697.987670898438	232.613494873047	-401.5417785644534	1518.85791015625	212.5981292724611	-403.0534362792971	1256.147583007813	165.862533569336	-408.9355163574221	1467.661865234375	357.0237121582032	-407.8005981445315	1288.265747070313	407.1484375000002	-451.8413085937502	1350.47705078125	141.9983520507813	-223.5772857666017	1501.819702148438	260.5479431152345	-92.4921798706055	1456.109497070313	273.0479431152345	59.48289871215823	1404.329223632813	297.3193664550782	37.81700897216798	1411.417358398438	428.8767395019534	-73.11714172363284	1396.853881835938	525.0312500000002	-3.875954389572145	1393.350463867188	558.750183105469	-56.7189865112305	1421.227905273438	619.8352050781252	-587.7562255859377	1504.857666015625	248.5221557617189	-757.4920654296877	1436.786499023438	228.3784027099611	-864.6766967773442	1399.666137695313	243.7070922851564	-834.4340820312505	1440.881225585938	379.4446716308595	-782.3031616210942	1438.470947265625	494.0225219726565	-857.6350708007817	1429.7705078125	504.4522399902346	-812.6609497070317	1465.248779296875	576.3029785156252	-301.304168701172	1026.081909179688	361.2529602050782	-518.569274902344	1030.8828125	361.994354248047	-345.8255920410157	1034.980712890625	171.7183227539063	-483.8793029785159	1032.141845703125	170.8623352050782	-213.2404937744142	757.544372558594	319.6157226562501	-237.1578369140626	523.288269042969	288.3739013671876	-202.2342224121095	317.4629516601564	242.5310363769532	-208.8854827880861	79.74815368652347	220.6986541748048	-251.0294647216798	38.21092224121095	169.1430816650391	-230.9042510986329	44.51597976684572	365.9041748046876	-590.3081054687502	668.543640136719	313.1612548828126	-564.2564697265627	513.2603759765627	295.7405395507814	-593.1861572265627	267.7088012695314	246.8418273925782	-586.8398437500002	83.40295410156253	220.6365814208986	-533.1141357421877	46.5656204223633	165.6874389648438	-570.7055664062502	42.87081146240236	363.5616149902345	-412.2927246093752	929.846069335938	309.9311523437501	-411.9244689941409	926.4451293945317	439.8655395507815	-282.3457946777345	926.9746704101567	309.4877014160157	-409.4107055664065	1059.749267578125	313.3230895996095	-295.7874450683595	517.0704345703127	274.8034667968751	-384.4881286621096	472.2810668945315	678.5466308593752	107.1494445800782	559.8033447265627	368.067596435547	-347.328582763672	928.2275390625005	309.0919494628907	-253.2447052001954	74.8501892089844	226.4669189453126	-194.2645721435548	34.67588043212892	645.9234619140627	166.1799774169922	121.1614303588868	171.9268188476563	-293.750213623047	495.893737792969	272.488739013672	-225.7848358154298	68.18789672851565	360.1813964843751	-247.2277832031251	257.8159790039064	356.2981567382814	-37.11300659179689	89.11380004882815	340.2130126953126	-245.1969299316407	62.10627365112308	170.3923950195313	-219.3141479492189	70.21511077880862	423.4443969726565	-226.4617919921876	133.4244842529297	422.1499938964846	-156.4235229492188	77.19041442871097	416.788269042969	-225.7848510742189	68.18790435791018	360.1813964843751	-505.0911254882815	510.1445922851565	283.4927368164064	-421.2026672363284	477.8338623046877	696.9512939453127	-91.3070983886719	488.3538208007815	197.8353271484376	-477.256774902344	931.464477539063	310.7703552246095	-542.0122680664065	79.4938659667969	221.091278076172	-551.3054809570315	20.73235702514649	632.1199951171877	-128.2917785644532	43.41619110107423	225.2876129150392	-506.9003906250002	489.0416259765627	280.4349365234376	-581.2482910156252	65.52112579345706	353.9072265625001	-564.4387207031252	259.0771484375001	360.7147521972657	-391.0004577636721	47.73936462402345	389.7178039550784	-544.9711914062502	69.08666992187503	162.9514770507813	-593.3406982421877	64.33258056640628	417.5591430664065	-587.737487792969	128.8512573242188	419.8283691406252	-529.924743652344	58.40527725219729	429.496032714844	-581.2482910156252	65.52113342285159	353.9072265625001	-390.863464355469	1621.427490234376	216.1620483398439	-418.0222167968752	1680.286865234376	434.1047363281252	-165.1137695312501	1629.219360351563	242.1893157958986	-391.5945739746096	1840.917602539063	156.793685913086	-227.4374237060548	1444.4599609375	268.2252807617189	-143.4739990234376	1463.011108398438	449.0434265136721	-214.1118469238282	1642.473022460938	241.7221984863282	-408.7155761718752	1467.608154296875	350.0274047851564	-585.3726196289065	1447.443115234375	256.389373779297	-680.8005371093752	1467.557006835938	432.0919189453127	-577.1140136718752	1248.517944335938	283.6471252441407	-408.715515136719	1467.608032226563	350.0273742675782	-408.7155761718752	1467.608154296875	350.0273742675782	-415.0191040039065	1469.150390625	550.5106201171877	-609.204772949219	1467.730712890625	343.7227172851564	-408.8865051269534	1267.02587890625	351.5650024414064	47.52560043334962	1362.745239257813	292.8425598144532	71.22818756103518	1356.086791992188	5.994537353515627	-34.4590187072754	1086.7626953125	292.4742736816407	-227.4374084472657	1444.459838867188	268.2252502441407	-39.17253875732423	1388.1669921875	542.558288574219	183.4173889160157	1321.931274414063	626.5816650390627	-109.5006103515626	1151.423828125	542.242370605469	41.45675659179689	1364.524780273438	310.3226928710939	-78.9023132324219	1404.66552734375	701.1138916015627	-64.18267059326175	1567.752807617188	687.8322753906252	79.82826232910159	1393.67138671875	742.0314941406252	-39.17255783081056	1388.167114257813	542.5583496093752	-851.095825195313	1358.615356445313	248.4652404785157	-824.708129882813	1304.09130859375	-25.20040893554689	-936.2831420898442	1618.805175781251	188.4120483398438	-585.3726806640627	1447.443237304688	256.389373779297	-818.9393920898442	1427.456787109375	501.1160278320315	-1050.772705078125	1362.451904296875	548.3352050781252	-893.5110473632817	1655.222900390626	448.5463867187502	-848.8449707031255	1363.434326171875	266.1507263183595	-799.711303710938	1454.050048828125	658.9324340820315	-821.2726440429692	1611.982788085938	634.9464111328127	-641.1290283203127	1472.298583984375	636.5360107421877	-818.9393920898442	1427.456665039063	501.1160888671877	-8.398358345031742	12.50538444519044	-3.257398605346681	1.931707859039308	-20.24002838134766	1.074474573135376	0	0	7.434637069702152	3.155601593831521e-13	1.35998821258545	7.436742305755619	-2.496015548706056	11.34713649749756	-2.213013410568238	-0.1699213683605195	-12.41273498535157	4.650983810424806	2.3805146764401e-13	-10.04221630096436	6.208609104156498	0	0	6.113147735595707	-1.270527720451355	-0.1623614132404328	1.495729565620423	1.270527720451355	0.1623614132404328	1.495729565620423	-6.483966350555423	-5.837070465087892	-91.83537292480472	-5.04933547973633	-10.75483322143555	-88.9302673339844	1.96195137500763	4.790864467620851	-14.56931114196778	-1.96195137500763	-4.790864467620851	-14.56931114196778	1.281923055648804	1.9642653465271	-1.895573854446412	-1.281923055648804	-1.9642653465271	-1.895573854446412	73.49710845947268	-0.01722051575779916	3.053343534469606	5.715059408858039e-16	8.304229699718227e-14	104.9851531982422	1.640943408012391	102.2037200927735	-4.78921699523926	71.48838806152347	-11.38812255859375	-0.051624670624733	-1.590277359294756e-15	-5.033227524001151e-13	103.0214996337891	-5.328881263732912	99.48895263671881	-1.841652035713197	0.04882295429706576	-1.800831437110902	-0.4392132759094241	-0.04882295429706576	1.800831437110902	-0.4392132759094241	-0.1842243224382401	-6.859978675842289	15.13536930084229	0.1842243224382401	6.859978675842289	15.13536930084229	
77	0.76	-351.041717529297	1741.643432617188	392.3924255371096	-476.5164794921877	1731.856689453126	370.3274841308595	-325.2270812988282	1697.993164062501	243.4851379394532	-466.6675720214846	1697.964355468751	232.5950927734376	-401.4774475097659	1518.841064453125	212.6195068359376	-403.0405578613284	1256.103393554688	165.9510192871094	-408.8913879394534	1467.6748046875	357.0476379394532	-407.7695007324221	1288.276611328125	407.2147216796877	-451.7781677246096	1350.45068359375	142.0468444824219	-223.5235900878907	1501.7861328125	260.5354614257814	-92.43891906738284	1456.053466796875	273.0793457031251	59.52332687377933	1404.245727539063	297.379119873047	37.80782318115236	1411.338500976563	428.9440612792971	-73.15948486328128	1396.737548828125	525.0357055664065	-3.91389060020447	1393.264770507813	558.7902832031252	-56.79011917114261	1421.123901367188	619.8745117187502	-587.6662597656252	1504.880126953125	248.4986114501954	-757.404235839844	1436.86083984375	228.3719329833986	-864.6040039062505	1399.753295898438	243.7353515625001	-834.3635253906255	1441.000122070313	379.4553222656251	-782.2199707031255	1438.617553710938	494.0255432128909	-857.5635375976567	1429.907104492188	504.4711608886721	-812.5780639648442	1465.39599609375	576.3143310546877	-301.2693176269532	1026.119873046875	361.3918762207032	-518.5316162109377	1030.905639648438	362.1547241210939	-345.9024963378907	1034.985961914063	171.8931427001954	-483.8767700195315	1032.110595703125	171.0386810302735	-213.2201995849611	757.5601196289065	319.7117309570314	-237.1404724121095	523.3027343750002	288.4216613769532	-202.2244415283204	317.4963378906251	242.5487365722657	-208.8957672119142	79.78009033203128	220.6865844726564	-251.0461578369142	38.24562072753908	169.122055053711	-230.8899230957032	44.52447891235353	365.8895874023439	-590.280944824219	668.538024902344	313.3253173828126	-564.2277832031252	513.261657714844	295.8467102050782	-593.2149047851565	267.6666259765626	246.9684600830079	-586.8338623046877	83.43292236328128	220.6184997558595	-533.1020507812502	46.58718872070314	165.6772155761719	-570.7078857421877	42.87949752807619	363.546600341797	-412.2549133300784	929.8644409179692	310.1036376953126	-411.8729553222659	926.4932250976567	440.038757324219	-282.307830810547	927.0020141601567	309.6473693847657	-409.3816223144534	1059.7685546875	313.4655761718751	-295.7731323242189	517.0906372070315	274.8617248535157	-384.3950805664065	472.2092895507815	678.6208496093752	107.1929626464844	559.7852783203127	368.0554809570314	-347.290740966797	928.2504882812505	309.258026123047	-253.2542572021486	74.88294982910159	226.4609680175782	-194.2127838134767	34.65168380737306	645.8955078125002	166.1560516357422	121.1855926513672	171.8641510009766	-293.7369689941407	495.9140625000002	272.5438842773439	-225.7743377685548	68.20217895507815	360.1703491210939	-247.211151123047	257.8314819335939	356.3151855468751	-37.10473632812501	89.1240158081055	340.1760559082032	-245.2154846191407	62.14608001708987	170.3835144042969	-219.2939300537111	70.22087097167972	423.4326477050784	-226.4395599365236	133.430648803711	422.1476135253909	-156.4040832519532	77.19483184814456	416.7678833007815	-225.7743225097657	68.20217132568362	360.170379638672	-505.0686645507815	510.1491699218752	283.5682983398439	-420.9688110351565	477.7230529785159	696.9923095703127	-91.3111267089844	488.380798339844	197.6932373046876	-477.2190246582034	931.478393554688	310.949188232422	-542.003845214844	79.53946685791018	220.9499664306642	-550.1724853515627	20.47332000732423	631.9506835937502	-128.2689208984376	43.6068687438965	224.0089721679689	-506.878601074219	489.0478515625002	280.4997558593751	-581.2468261718752	65.5545349121094	353.7625732421876	-564.4866333007815	259.1146850585939	360.5748291015626	-390.9974060058596	47.82014083862306	389.5879211425784	-544.955505371094	69.13260650634768	162.8097839355469	-593.3439941406252	64.36183166503909	417.413513183594	-587.757263183594	128.8818664550782	419.684265136719	-529.9274902343752	58.45035552978518	429.3552856445315	-581.2468872070315	65.55451965332034	353.7625732421876	-390.7846984863284	1621.390014648438	216.1429748535157	-417.8985595703127	1680.343139648438	434.0659179687502	-165.0296020507813	1629.179321289063	242.1241149902345	-391.5138854980471	1840.855102539063	156.6819152832032	-227.3889465332032	1444.4287109375	268.2280883789064	-143.3963317871094	1463.019409179688	449.0478820800784	-214.0441131591798	1642.450927734376	241.6699829101564	-408.6713867187502	1467.619262695313	350.0513305664064	-585.2976074218752	1447.467529296875	256.3838806152345	-680.7562255859377	1467.65478515625	432.0443115234377	-577.091247558594	1248.563354492188	283.7019348144532	-408.6715087890627	1467.619262695313	350.0514221191407	-408.6714477539065	1467.619262695313	350.0513305664064	-414.9748229980471	1469.2119140625	550.5356445312502	-609.1619873046877	1467.769409179688	343.7465820312501	-408.8716125488284	1267.035888671875	351.6384887695314	47.56029129028322	1362.664306640625	292.8932189941407	71.32560729980472	1356.048583984375	6.044311523437504	-34.47002029418947	1086.690185546875	292.4619445800782	-227.3889923095704	1444.428588867188	268.2280273437501	-39.21004486083986	1388.065673828125	542.5808715820315	183.3391113281251	1321.783935546875	626.6630859375002	-109.574691772461	1151.338256835938	542.210876464844	41.48632812500001	1364.442504882813	310.3713989257814	-78.98773193359378	1404.557006835938	701.1704711914065	-64.32917022705081	1567.693359375001	687.8831176757815	79.78176879882815	1393.626953125	742.129821777344	-39.21006393432619	1388.065795898438	542.5808715820315	-851.032104492188	1358.700805664063	248.5035858154298	-824.6768188476567	1304.095703125	-25.13880920410158	-936.161743164063	1618.883666992188	188.3852539062501	-585.2976684570315	1447.467529296875	256.3838500976564	-818.8607788085942	1427.598876953125	501.1284484863284	-1050.7001953125	1362.657592773438	548.3641357421877	-893.3820190429692	1655.360107421876	448.5016784667971	-848.7800903320317	1363.523803710938	266.1873168945314	-799.6166992187505	1454.203735351563	658.9445800781252	-821.2014770507817	1612.135986328126	634.9522094726565	-641.0357666015627	1472.4716796875	636.5276489257815	-818.8607788085942	1427.598876953125	501.1283264160159	-8.39148044586182	12.4995346069336	-3.2847056388855	1.92970883846283	-20.23787689208985	1.068648457527161	0	0	7.434730052948002	-2.578963518434786e-13	1.359993815422059	7.436836242675785	-2.501505613327027	11.37036514282227	-2.240411520004273	-0.1647024601697922	-12.28437042236329	4.665851116180422	-3.485717573956106e-13	-10.20365333557129	6.235983371734623	0	0	6.136980056762699	-1.266664266586304	-0.1684150248765946	1.482488155364991	1.266664266586304	0.1684150248765946	1.482488155364991	-6.482201099395756	-5.845840454101564	-91.82769012451175	-5.034525394439699	-10.75909900665284	-88.92651367187503	1.968073368072511	4.779723167419435	-14.57876205444337	-1.968073368072511	-4.779723167419435	-14.57876205444337	1.269744038581849	1.970522403717042	-1.896867156028748	-1.269744038581849	-1.970522403717042	-1.896867156028748	73.49401855468753	0.008888850919902328	3.058794021606447	9.690752542397132e-16	-4.904763119088775e-13	104.990577697754	1.643036484718324	102.2384262084962	-4.792116641998293	71.49290466308597	-11.38885116577149	-0.04711975902318957	0	1.142614323469682e-12	103.0174942016602	-5.338821887969972	99.46739959716803	-1.841291785240174	0.05717569217085841	-1.800761222839356	-0.453368812799454	-0.05717569217085841	1.800761222839356	-0.453368812799454	-0.183744952082634	-6.848587512969974	15.15956592559815	0.183744952082634	6.848587512969974	15.15956592559815	
